HIERARCHY
ROOT Hips
{
  OFFSET 5.84602e-005 68.8428 3.50346
  CHANNELS 6 Xposition Yposition Zposition Zrotation Xrotation Yrotation
  JOINT Spine
  {
    OFFSET 0 8.597 -4.6522
    CHANNELS 3 Zrotation Xrotation Yrotation
    JOINT Spine1
    {
      OFFSET 0 7.8454 0.4098
      CHANNELS 3 Zrotation Xrotation Yrotation
      JOINT Spine2
      {
        OFFSET 0 9.7078 -2.1609
        CHANNELS 3 Zrotation Xrotation Yrotation
        JOINT Neck
        {
          OFFSET 0 21.8761 -0.4549
          CHANNELS 3 Zrotation Xrotation Yrotation
          JOINT Head
          {
            OFFSET 0 12.3537 3.3602
            CHANNELS 3 Zrotation Xrotation Yrotation
            End Site
            {
              OFFSET 0.0001 18.9506 0.5657
            }
          }
        }
        JOINT LeftShoulder
        {
          OFFSET 2.2086 21.1115 7.2329
          CHANNELS 3 Zrotation Xrotation Yrotation
          JOINT LeftArm
          {
            OFFSET 13.1193 3.0282 -4.8998
            CHANNELS 3 Zrotation Xrotation Yrotation
            JOINT LeftForeArm
            {
              OFFSET 27.4081 -0.0973053 -0.2375
              CHANNELS 3 Zrotation Xrotation Yrotation
              JOINT LeftHand
              {
                OFFSET 22.8641 0.0662994 -0.1369
                CHANNELS 3 Zrotation Xrotation Yrotation
                JOINT LeftHandIndex1
                {
                  OFFSET 8.8614 0.775009 2.4612
                  CHANNELS 3 Zrotation Xrotation Yrotation
                  JOINT LeftHandIndex2
                  {
                    OFFSET 3.3146 -0.808304 0.5841
                    CHANNELS 3 Zrotation Xrotation Yrotation
                    JOINT LeftHandIndex3
                    {
                      OFFSET 2.2628 -0.552002 0.3989
                      CHANNELS 3 Zrotation Xrotation Yrotation
                      End Site
                      {
                        OFFSET 1.6102 -0.4807 0.2612
                      }
                    }
                  }
                }
                JOINT LeftHandMiddle1
                {
                  OFFSET 8.9937 0.895004 0.2143
                  CHANNELS 3 Zrotation Xrotation Yrotation
                  JOINT LeftHandMiddle2
                  {
                    OFFSET 4.0984 0.0113983 -0.0242
                    CHANNELS 3 Zrotation Xrotation Yrotation
                    JOINT LeftHandMiddle3
                    {
                      OFFSET 2.2716 0.00689697 -0.0138001
                      CHANNELS 3 Zrotation Xrotation Yrotation
                      End Site
                      {
                        OFFSET 2.0404 -0.1441 0.0027
                      }
                    }
                  }
                }
                JOINT LeftHandRing1
                {
                  OFFSET 8.5234 0.597198 -2.0164
                  CHANNELS 3 Zrotation Xrotation Yrotation
                  JOINT LeftHandRing2
                  {
                    OFFSET 3.7188 -0.188293 -0.2328
                    CHANNELS 3 Zrotation Xrotation Yrotation
                    JOINT LeftHandRing3
                    {
                      OFFSET 2.1191 -0.106598 -0.1332
                      CHANNELS 3 Zrotation Xrotation Yrotation
                      End Site
                      {
                        OFFSET 1.8737 -0.2304 -0.0886
                      }
                    }
                  }
                }
                JOINT LeftHandPinky1
                {
                  OFFSET 7.9094 -0.601089 -3.4825
                  CHANNELS 3 Zrotation Xrotation Yrotation
                  JOINT LeftHandPinky2
                  {
                    OFFSET 2.2874 -0.477005 -0.6314
                    CHANNELS 3 Zrotation Xrotation Yrotation
                    JOINT LeftHandPinky3
                    {
                      OFFSET 1.6774 -0.349396 -0.4633
                      CHANNELS 3 Zrotation Xrotation Yrotation
                      End Site
                      {
                        OFFSET 1.4888 -0.4091 -0.3416
                      }
                    }
                  }
                }
                JOINT LeftHandThumb1
                {
                  OFFSET 1.833 -1.3875 1.3896
                  CHANNELS 3 Zrotation Xrotation Yrotation
                  JOINT LeftHandThumb2
                  {
                    OFFSET 3.4129 -1.121 2.5732
                    CHANNELS 3 Zrotation Xrotation Yrotation
                    JOINT LeftHandThumb3
                    {
                      OFFSET 2.2474 -0.804199 1.6192
                      CHANNELS 3 Zrotation Xrotation Yrotation
                      End Site
                      {
                        OFFSET 1.6527 -0.5689 1.1317
                      }
                    }
                  }
                }
              }
            }
          }
        }
        JOINT RightShoulder
        {
          OFFSET -2.2086 21.1115 7.2329
          CHANNELS 3 Zrotation Xrotation Yrotation
          JOINT RightArm
          {
            OFFSET -13.1216 3.0287 -4.9007
            CHANNELS 3 Zrotation Xrotation Yrotation
            JOINT RightForeArm
            {
              OFFSET -27.4081 -0.0973053 -0.2375
              CHANNELS 3 Zrotation Xrotation Yrotation
              JOINT RightHand
              {
                OFFSET -22.8641 0.0664063 -0.1369
                CHANNELS 3 Zrotation Xrotation Yrotation
                JOINT RightHandIndex1
                {
                  OFFSET -8.8614 0.774994 2.4612
                  CHANNELS 3 Zrotation Xrotation Yrotation
                  JOINT RightHandIndex2
                  {
                    OFFSET -3.3146 -0.808304 0.5841
                    CHANNELS 3 Zrotation Xrotation Yrotation
                    JOINT RightHandIndex3
                    {
                      OFFSET -2.2628 -0.552002 0.3989
                      CHANNELS 3 Zrotation Xrotation Yrotation
                      End Site
                      {
                        OFFSET -1.6102 -0.4807 0.2612
                      }
                    }
                  }
                }
                JOINT RightHandMiddle1
                {
                  OFFSET -8.9937 0.894989 0.2143
                  CHANNELS 3 Zrotation Xrotation Yrotation
                  JOINT RightHandMiddle2
                  {
                    OFFSET -4.0984 0.0113983 -0.0242
                    CHANNELS 3 Zrotation Xrotation Yrotation
                    JOINT RightHandMiddle3
                    {
                      OFFSET -2.2716 0.00691223 -0.0138001
                      CHANNELS 3 Zrotation Xrotation Yrotation
                      End Site
                      {
                        OFFSET -2.0404 -0.1441 0.0027
                      }
                    }
                  }
                }
                JOINT RightHandRing1
                {
                  OFFSET -8.5234 0.597198 -2.0164
                  CHANNELS 3 Zrotation Xrotation Yrotation
                  JOINT RightHandRing2
                  {
                    OFFSET -3.7188 -0.188309 -0.2328
                    CHANNELS 3 Zrotation Xrotation Yrotation
                    JOINT RightHandRing3
                    {
                      OFFSET -2.1191 -0.106598 -0.1332
                      CHANNELS 3 Zrotation Xrotation Yrotation
                      End Site
                      {
                        OFFSET -1.8737 -0.2304 -0.0886
                      }
                    }
                  }
                }
                JOINT RightHandPinky1
                {
                  OFFSET -7.9094 -0.601105 -3.4825
                  CHANNELS 3 Zrotation Xrotation Yrotation
                  JOINT RightHandPinky2
                  {
                    OFFSET -2.2874 -0.477005 -0.6314
                    CHANNELS 3 Zrotation Xrotation Yrotation
                    JOINT RightHandPinky3
                    {
                      OFFSET -1.6774 -0.349396 -0.4633
                      CHANNELS 3 Zrotation Xrotation Yrotation
                      End Site
                      {
                        OFFSET -1.4888 -0.4091 -0.3416
                      }
                    }
                  }
                }
                JOINT RightHandThumb1
                {
                  OFFSET -1.833 -1.38751 1.3896
                  CHANNELS 3 Zrotation Xrotation Yrotation
                  JOINT RightHandThumb2
                  {
                    OFFSET -3.41299 -1.12099 2.5732
                    CHANNELS 3 Zrotation Xrotation Yrotation
                    JOINT RightHandThumb3
                    {
                      OFFSET -2.24741 -0.804108 1.6192
                      CHANNELS 3 Zrotation Xrotation Yrotation
                      End Site
                      {
                        OFFSET -1.6527 -0.5689 1.1317
                      }
                    }
                  }
                }
              }
            }
          }
        }
      }
    }
  }
  JOINT RightUpLeg
  {
    OFFSET -9.1966 3.8861 -0.7581
    CHANNELS 3 Zrotation Xrotation Yrotation
    JOINT RightLeg
    {
      OFFSET -0.7359 -41.0265 0
      CHANNELS 3 Zrotation Xrotation Yrotation
      JOINT RightFoot
      {
        OFFSET 0 -40.2855 0
        CHANNELS 3 Zrotation Xrotation Yrotation
        JOINT RightToeBase
        {
          OFFSET 0 -5.6122 11.7359
          CHANNELS 3 Zrotation Xrotation Yrotation
          End Site
          {
            OFFSET 0 0 7.8731
          }
        }
      }
    }
  }
  JOINT LeftUpLeg
  {
    OFFSET 9.1965 3.8864 -0.7581
    CHANNELS 3 Zrotation Xrotation Yrotation
    JOINT LeftLeg
    {
      OFFSET 0.7359 -41.0268 0
      CHANNELS 3 Zrotation Xrotation Yrotation
      JOINT LeftFoot
      {
        OFFSET 0 -40.2855 0
        CHANNELS 3 Zrotation Xrotation Yrotation
        JOINT LeftToeBase
        {
          OFFSET 0 -5.6122 11.7359
          CHANNELS 3 Zrotation Xrotation Yrotation
          End Site
          {
            OFFSET 0 0 7.8731
          }
        }
      }
    }
  }
}
MOTION
Frames:	4
Frame Time:	0.0333333
5.84602e-005 68.8428 3.50346 0 0 -0 0 0 -0 0 0 -0 0 0 -0 0 0 -0 0 0 -0 0 0 -0 0 0 -0 0 0 -0 0 0 -0 0 0 -0 0 0 -0 0 0 -0 0 0 -0 -0.0146107 -8.87603e-005 -2.63497e-007 2.99804e-018 -2.42657e-020 -1.42182e-022 0 0 -0 -0.0187562 -0.001176 5.858e-005 5.06224e-018 3.88251e-019 1.21329e-020 0 0 -0 -0.012269 -0.00324817 0.000675346 -1.74678e-018 3.88251e-019 -0 0 0 -0 0 0 -0 0 0 -0 0 0 -0 0 0 -0 0 0 -0 0 0 -0 0 0 -0 0 0 -0 0 0 -0 0 0 -0 0.0149955 -9.10982e-005 2.64101e-007 -9.69331e-018 1.21329e-020 -4.7394e-023 0 0 -0 0.0189956 -0.00119102 -5.96516e-005 -5.41541e-019 0 2.42657e-020 0 0 -0 0.0122698 -0.00324857 -0.000673756 -2.00796e-019 0 -1.94126e-019 0 0 -0 0 0 -0 0 0 -0 3.39842 1.33031 -0.0637918 -5.65207e-008 0.834868 -0.000436188 -3.39935 -2.16518 -0.0642563 -8.89002e-024 -1.18485e-023 -1.48106e-024 -3.39844 1.35642 0.0640283 -3.18788e-007 0.782166 -0.000588827 3.39931 -2.13858 0.0634662 1.1399e-023 0 -0 
-6.95431 19.1051 37.4527 -180 73.0052 180 -0.0734913 -7.95296 -0.439211 -0.212359 -15.9052 -0.902086 -0.21236 -15.9052 -0.902087 -2.14267e-005 -15.0012 1.66287e-006 2.68432e-008 -0.792095 -1.57819e-007 -2.14507 -5.01639 -40.9523 4.18148 -0.648302 -12.549 24.1937 -14.0709 -24.1092 15.3157 -5.39529 -9.82085 -1.1708e-006 -1.22129e-006 -1.33599e-007 3.18055e-015 1.98785e-016 7.95139e-016 -1.1708e-006 -1.22129e-006 -1.33599e-007 -1.1708e-006 -1.22129e-006 -1.33599e-007 -0.0146391 -8.87277e-005 -2.24521e-006 -1.17077e-006 -1.22127e-006 -1.33754e-007 -1.1708e-006 -1.22129e-006 -1.33599e-007 -0.0187537 -0.00117649 6.26925e-005 -6.79604e-007 -8.05324e-007 -2.96383e-007 -1.1708e-006 -1.22129e-006 -1.33599e-007 -0.0122603 -0.00324454 0.000678156 -1.17079e-006 -1.22126e-006 -1.33698e-007 -1.1708e-006 -1.22129e-006 -1.33599e-007 3.18055e-015 1.98785e-016 7.95139e-016 -1.1708e-006 -1.22129e-006 -1.33599e-007 2.53021 -5.28239 42.1505 -4.39052 -0.538675 12.9402 -20.6427 -10.8551 25.3681 -14.8424 -4.90439 8.56768 6.77968e-007 -1.7177e-007 -1.44525e-007 6.36111e-015 -9.93923e-016 3.97569e-016 9.54166e-015 -7.95139e-016 3.97569e-016 6.77968e-007 -1.7177e-007 -1.44525e-007 0.0149403 -8.98791e-005 9.82845e-007 1.37935e-033 -1.98785e-016 3.97569e-016 6.77968e-007 -1.7177e-007 -1.44525e-007 0.0189562 -0.0011897 -6.23667e-005 6.76324e-007 -1.7169e-007 -1.44499e-007 6.77968e-007 -1.7177e-007 -1.44525e-007 0.0123523 -0.00326988 -0.000682315 -1.86212e-031 -2.68359e-015 -3.97569e-015 6.77968e-007 -1.7177e-007 -1.44525e-007 6.36111e-015 -9.93923e-016 3.97569e-016 9.54166e-015 -7.95139e-016 3.97569e-016 3.87316 -58.8708 0.0431394 -0.470498 48.7377 0.584189 -8.4405 8.46019 0.204587 1.95851e-007 4.13721e-006 2.20157e-007 -3.87354 -58.867 -0.0387242 0.437428 48.749 -0.59313 8.42346 8.45245 -0.188674 1.59028e-015 6.36111e-015 1.98785e-016 
-6.95282 18.595 37.6153 -180 74.3848 180 -0.0780347 -7.41918 -0.438334 -0.216636 -14.8375 -0.898416 -0.216636 -14.8375 -0.898416 -3.6679e-006 -15.8882 8.38005e-007 -1.50024e-007 -1.57982 -3.74106e-008 -1.76611 -5.8349 -40.6062 4.1815 -0.648309 -12.549 24.3923 -14.162 -24.3154 15.6381 -5.83163 -9.36758 3.18055e-015 -2.98177e-016 -0 -1.65521e-032 -1.19271e-015 -7.95139e-016 -3.18055e-015 1.98785e-016 -7.95139e-016 3.18055e-015 -2.98177e-016 -0 -0.0145817 -8.79516e-005 -3.29507e-006 6.36111e-015 -1.78906e-015 3.97569e-016 3.18055e-015 -2.98177e-016 -0 -0.0187689 -0.00117749 5.62235e-005 1.37935e-033 1.98785e-016 -3.97569e-016 3.18055e-015 -2.98177e-016 -0 -0.0123577 -0.00327113 0.000675735 -3.18055e-015 -1.35174e-014 7.95139e-016 3.18055e-015 -2.98177e-016 -0 -1.65521e-032 -1.19271e-015 -7.95139e-016 -3.18055e-015 1.98785e-016 -7.95139e-016 2.19063 -6.1043 41.7799 -4.39052 -0.538648 12.9402 -20.8402 -10.9521 25.6257 -15.1676 -5.34143 8.09699 3.18055e-015 0 3.97569e-016 3.18055e-015 -3.97569e-016 3.97569e-016 3.18055e-015 -7.95139e-016 3.97569e-016 3.18055e-015 0 3.97569e-016 0.0150501 -9.31043e-005 -1.06076e-005 -9.54166e-015 -1.68967e-015 3.97569e-016 3.18055e-015 0 3.97569e-016 0.0189056 -0.0011861 -6.05788e-005 2.20695e-032 1.59028e-015 -7.95139e-016 3.18055e-015 0 3.97569e-016 0.0121735 -0.00322328 -0.000666758 -6.89673e-033 9.93923e-016 3.97569e-016 3.18055e-015 0 3.97569e-016 3.18055e-015 -3.97569e-016 3.97569e-016 3.18055e-015 -7.95139e-016 3.97569e-016 3.74122 -57.025 -0.0490978 -0.463814 48.7127 0.58061 -8.44055 8.46336 0.204826 5.97418e-007 9.92813e-010 8.28804e-008 -3.74282 -57.0186 0.0434839 0.350918 48.4668 -0.543143 8.4257 8.45823 -0.18927 5.97616e-007 -9.33083e-010 8.15763e-008 
-6.95131 18.0851 37.7826 -180 75.7676 180 -0.0825782 -6.87792 -0.437222 -0.220885 -13.755 -0.894295 -0.220886 -13.755 -0.894296 -6.44484e-006 -16.7758 3.50078e-007 4.51765e-007 -2.36815 2.95166e-007 -1.38116 -6.65201 -40.2538 4.1815 -0.648302 -12.549 24.5906 -14.2537 -24.5212 15.9644 -6.26565 -8.9112 0 8.94531e-016 -0 -3.18055e-015 1.09332e-015 -5.96354e-016 -3.18055e-015 4.96962e-016 -1.98785e-016 0 8.94531e-016 -0 -0.0146057 -8.81928e-005 -2.00051e-006 5.04322e-007 4.24484e-007 -1.39644e-007 0 8.94531e-016 -0 -0.018705 -0.00117195 5.39616e-005 -8.27607e-033 7.95139e-016 5.96354e-016 0 8.94531e-016 -0 -0.0121259 -0.00320923 0.000667836 3.18055e-015 1.19271e-015 -5.96354e-016 0 8.94531e-016 -0 -3.18055e-015 1.09332e-015 -5.96354e-016 -3.18055e-015 4.96962e-016 -1.98785e-016 1.84477 -6.92488 41.4033 -4.39053 -0.538651 12.9402 -21.0374 -11.0499 25.8831 -15.4968 -5.77605 7.62316 -6.36111e-015 -4.96962e-016 -3.97569e-016 -3.18055e-015 0 -7.95139e-016 -3.18055e-015 1.98785e-016 -3.97569e-016 -6.36111e-015 -4.96962e-016 -3.97569e-016 0.0149509 -9.11872e-005 -1.81337e-006 3.18055e-015 -9.93923e-016 -1.19271e-015 -6.36111e-015 -4.96962e-016 -3.97569e-016 0.0189521 -0.00118829 -5.6522e-005 -0 -6.95746e-016 -0 -6.36111e-015 -4.96962e-016 -3.97569e-016 0.0122375 -0.0032406 -0.000680032 -3.18055e-015 -1.78906e-015 -0 -6.36111e-015 -4.96962e-016 -3.97569e-016 -3.18055e-015 0 -7.95139e-016 -3.18055e-015 1.98785e-016 -3.97569e-016 3.62026 -55.1713 -0.129819 -0.45713 48.6878 0.577012 -8.44063 8.46651 0.205065 -5.97083e-007 -4.69138e-010 -8.51959e-008 -3.623 -55.1621 0.11426 0.265279 48.1841 -0.494077 8.42798 8.46416 -0.189879 -2.38542e-015 -3.18055e-015 -1.98785e-016 
